<mxfile host="Electron" agent="Mozilla/5.0 (Windows NT 10.0; Win64; x64) AppleWebKit/537.36 (KHTML, like Gecko) draw.io/26.1.1 Chrome/132.0.6834.210 Electron/34.3.3 Safari/537.36" version="26.1.1" pages="6">
  <diagram name="Схема исходная" id="-H_mtQnk-PTXWXPvYvuk">
    <mxGraphModel dx="1434" dy="836" grid="1" gridSize="10" guides="1" tooltips="1" connect="1" arrows="1" fold="1" page="1" pageScale="1" pageWidth="1169" pageHeight="827" math="0" shadow="0">
      <root>
        <mxCell id="0" />
        <mxCell id="1" parent="0" />
        <mxCell id="zA23MoTUsTF4_91t8viU-2" value="MongoDB" style="shape=cylinder3;whiteSpace=wrap;html=1;boundedLbl=1;backgroundOutline=1;size=15;" parent="1" vertex="1">
          <mxGeometry x="390" y="400" width="60" height="80" as="geometry" />
        </mxCell>
        <mxCell id="zA23MoTUsTF4_91t8viU-3" value="pymongo-api" style="rounded=1;whiteSpace=wrap;html=1;" parent="1" vertex="1">
          <mxGeometry x="360" y="290" width="120" height="60" as="geometry" />
        </mxCell>
        <mxCell id="zA23MoTUsTF4_91t8viU-4" style="edgeStyle=orthogonalEdgeStyle;rounded=0;orthogonalLoop=1;jettySize=auto;html=1;exitX=0.5;exitY=1;exitDx=0;exitDy=0;entryX=0.5;entryY=0;entryDx=0;entryDy=0;entryPerimeter=0;" parent="1" source="zA23MoTUsTF4_91t8viU-3" target="zA23MoTUsTF4_91t8viU-2" edge="1">
          <mxGeometry relative="1" as="geometry" />
        </mxCell>
      </root>
    </mxGraphModel>
  </diagram>
  <diagram id="LG_9dl-YXokiFzIEqiWG" name="1. Шардирование">
    <mxGraphModel dx="1434" dy="836" grid="1" gridSize="10" guides="1" tooltips="1" connect="1" arrows="1" fold="1" page="1" pageScale="1" pageWidth="850" pageHeight="1100" math="0" shadow="0">
      <root>
        <mxCell id="0" />
        <mxCell id="1" parent="0" />
        <mxCell id="C3gfsMxhOFF5CTcCDI-P-1" value="Shard_2" style="shape=cylinder3;whiteSpace=wrap;html=1;boundedLbl=1;backgroundOutline=1;size=15;" parent="1" vertex="1">
          <mxGeometry x="450" y="414" width="60" height="60" as="geometry" />
        </mxCell>
        <mxCell id="C3gfsMxhOFF5CTcCDI-P-2" value="pymongo-api" style="rounded=1;whiteSpace=wrap;html=1;" parent="1" vertex="1">
          <mxGeometry x="355" y="184" width="120" height="60" as="geometry" />
        </mxCell>
        <mxCell id="C3gfsMxhOFF5CTcCDI-P-3" style="edgeStyle=orthogonalEdgeStyle;rounded=0;orthogonalLoop=1;jettySize=auto;html=1;exitX=0.5;exitY=1;exitDx=0;exitDy=0;" parent="1" source="C3gfsMxhOFF5CTcCDI-P-2" target="C3gfsMxhOFF5CTcCDI-P-6" edge="1">
          <mxGeometry relative="1" as="geometry" />
        </mxCell>
        <mxCell id="C3gfsMxhOFF5CTcCDI-P-5" value="configSrv" style="rounded=1;whiteSpace=wrap;html=1;" parent="1" vertex="1">
          <mxGeometry x="160" y="294" width="120" height="60" as="geometry" />
        </mxCell>
        <mxCell id="C3gfsMxhOFF5CTcCDI-P-6" value="mongos_router" style="rounded=1;whiteSpace=wrap;html=1;" parent="1" vertex="1">
          <mxGeometry x="355" y="294" width="120" height="60" as="geometry" />
        </mxCell>
        <mxCell id="C3gfsMxhOFF5CTcCDI-P-13" style="edgeStyle=orthogonalEdgeStyle;rounded=0;orthogonalLoop=1;jettySize=auto;html=1;exitX=0.25;exitY=1;exitDx=0;exitDy=0;entryX=0.5;entryY=0;entryDx=0;entryDy=0;entryPerimeter=0;" parent="1" source="C3gfsMxhOFF5CTcCDI-P-6" target="0Q7rNJXwksl-JOTtG5P0-1" edge="1">
          <mxGeometry relative="1" as="geometry">
            <mxPoint x="420" y="254" as="sourcePoint" />
            <mxPoint x="260" y="404" as="targetPoint" />
          </mxGeometry>
        </mxCell>
        <mxCell id="C3gfsMxhOFF5CTcCDI-P-14" style="edgeStyle=orthogonalEdgeStyle;rounded=0;orthogonalLoop=1;jettySize=auto;html=1;exitX=0.75;exitY=1;exitDx=0;exitDy=0;entryX=0.5;entryY=0;entryDx=0;entryDy=0;entryPerimeter=0;" parent="1" source="C3gfsMxhOFF5CTcCDI-P-6" target="C3gfsMxhOFF5CTcCDI-P-1" edge="1">
          <mxGeometry relative="1" as="geometry">
            <mxPoint x="430" y="264" as="sourcePoint" />
            <mxPoint x="435" y="314" as="targetPoint" />
          </mxGeometry>
        </mxCell>
        <mxCell id="C3gfsMxhOFF5CTcCDI-P-15" style="edgeStyle=orthogonalEdgeStyle;rounded=0;orthogonalLoop=1;jettySize=auto;html=1;exitX=0;exitY=0.5;exitDx=0;exitDy=0;entryX=1;entryY=0.5;entryDx=0;entryDy=0;" parent="1" source="C3gfsMxhOFF5CTcCDI-P-6" target="C3gfsMxhOFF5CTcCDI-P-5" edge="1">
          <mxGeometry relative="1" as="geometry">
            <mxPoint x="440" y="274" as="sourcePoint" />
            <mxPoint x="445" y="324" as="targetPoint" />
          </mxGeometry>
        </mxCell>
        <mxCell id="0Q7rNJXwksl-JOTtG5P0-1" value="Shard_1" style="shape=cylinder3;whiteSpace=wrap;html=1;boundedLbl=1;backgroundOutline=1;size=15;" parent="1" vertex="1">
          <mxGeometry x="310" y="414" width="60" height="60" as="geometry" />
        </mxCell>
        <mxCell id="TsIzr868_SXbzkS-tvKT-1" value="MongoDB" style="text;html=1;align=center;verticalAlign=middle;whiteSpace=wrap;rounded=0;" parent="1" vertex="1">
          <mxGeometry x="344" y="390" width="60" height="30" as="geometry" />
        </mxCell>
        <mxCell id="TsIzr868_SXbzkS-tvKT-2" value="MongoDB" style="text;html=1;align=center;verticalAlign=middle;whiteSpace=wrap;rounded=0;" parent="1" vertex="1">
          <mxGeometry x="485" y="388" width="60" height="30" as="geometry" />
        </mxCell>
        <mxCell id="TsIzr868_SXbzkS-tvKT-3" value="MongoDB" style="text;html=1;align=center;verticalAlign=middle;whiteSpace=wrap;rounded=0;" parent="1" vertex="1">
          <mxGeometry x="355" y="264" width="60" height="30" as="geometry" />
        </mxCell>
        <mxCell id="TsIzr868_SXbzkS-tvKT-4" value="MongoDB" style="text;html=1;align=center;verticalAlign=middle;whiteSpace=wrap;rounded=0;" parent="1" vertex="1">
          <mxGeometry x="160" y="264" width="60" height="30" as="geometry" />
        </mxCell>
        <mxCell id="ets7ZC694xx3edv-DBCQ-1" value="Python" style="text;html=1;align=center;verticalAlign=middle;whiteSpace=wrap;rounded=0;" parent="1" vertex="1">
          <mxGeometry x="420" y="160" width="60" height="30" as="geometry" />
        </mxCell>
      </root>
    </mxGraphModel>
  </diagram>
  <diagram id="TY0qiLWihTHDIeh71af-" name="2. + Репликация">
    <mxGraphModel dx="1434" dy="836" grid="1" gridSize="10" guides="1" tooltips="1" connect="1" arrows="1" fold="1" page="1" pageScale="1" pageWidth="850" pageHeight="1100" math="0" shadow="0">
      <root>
        <mxCell id="0" />
        <mxCell id="1" parent="0" />
        <mxCell id="wAzL0EVWeeOAPMfM1UnS-2" value="pymongo-api" style="rounded=1;whiteSpace=wrap;html=1;" parent="1" vertex="1">
          <mxGeometry x="395" y="110" width="120" height="60" as="geometry" />
        </mxCell>
        <mxCell id="wAzL0EVWeeOAPMfM1UnS-3" style="edgeStyle=orthogonalEdgeStyle;rounded=0;orthogonalLoop=1;jettySize=auto;html=1;exitX=0.5;exitY=1;exitDx=0;exitDy=0;" parent="1" source="wAzL0EVWeeOAPMfM1UnS-2" target="wAzL0EVWeeOAPMfM1UnS-5" edge="1">
          <mxGeometry relative="1" as="geometry" />
        </mxCell>
        <mxCell id="wAzL0EVWeeOAPMfM1UnS-4" value="configSrv" style="rounded=1;whiteSpace=wrap;html=1;" parent="1" vertex="1">
          <mxGeometry x="160" y="220" width="120" height="60" as="geometry" />
        </mxCell>
        <mxCell id="wAzL0EVWeeOAPMfM1UnS-5" value="mongos_router" style="rounded=1;whiteSpace=wrap;html=1;" parent="1" vertex="1">
          <mxGeometry x="395" y="220" width="120" height="60" as="geometry" />
        </mxCell>
        <mxCell id="wAzL0EVWeeOAPMfM1UnS-6" style="edgeStyle=orthogonalEdgeStyle;rounded=0;orthogonalLoop=1;jettySize=auto;html=1;exitX=0.25;exitY=1;exitDx=0;exitDy=0;entryX=0.5;entryY=0;entryDx=0;entryDy=0;" parent="1" source="wAzL0EVWeeOAPMfM1UnS-5" target="wAzL0EVWeeOAPMfM1UnS-9" edge="1">
          <mxGeometry relative="1" as="geometry">
            <mxPoint x="460" y="180" as="sourcePoint" />
            <mxPoint x="360" y="340" as="targetPoint" />
          </mxGeometry>
        </mxCell>
        <mxCell id="wAzL0EVWeeOAPMfM1UnS-7" style="edgeStyle=orthogonalEdgeStyle;rounded=0;orthogonalLoop=1;jettySize=auto;html=1;exitX=0.75;exitY=1;exitDx=0;exitDy=0;entryX=0.5;entryY=0;entryDx=0;entryDy=0;" parent="1" source="wAzL0EVWeeOAPMfM1UnS-5" target="AHjRgc1gNTrPlPV6p_8R-5" edge="1">
          <mxGeometry relative="1" as="geometry">
            <mxPoint x="470" y="190" as="sourcePoint" />
            <mxPoint x="520" y="340" as="targetPoint" />
          </mxGeometry>
        </mxCell>
        <mxCell id="wAzL0EVWeeOAPMfM1UnS-8" style="edgeStyle=orthogonalEdgeStyle;rounded=0;orthogonalLoop=1;jettySize=auto;html=1;exitX=0;exitY=0.5;exitDx=0;exitDy=0;entryX=1;entryY=0.5;entryDx=0;entryDy=0;" parent="1" source="wAzL0EVWeeOAPMfM1UnS-5" target="wAzL0EVWeeOAPMfM1UnS-4" edge="1">
          <mxGeometry relative="1" as="geometry">
            <mxPoint x="480" y="200" as="sourcePoint" />
            <mxPoint x="485" y="250" as="targetPoint" />
          </mxGeometry>
        </mxCell>
        <mxCell id="wAzL0EVWeeOAPMfM1UnS-9" value="" style="rounded=1;whiteSpace=wrap;html=1;dashed=1;fillColor=#f5f5f5;strokeColor=#666666;fontColor=#333333;" parent="1" vertex="1">
          <mxGeometry x="220" y="350" width="230" height="170" as="geometry" />
        </mxCell>
        <mxCell id="wAzL0EVWeeOAPMfM1UnS-10" value="shard_1_1&lt;div&gt;Master&lt;/div&gt;" style="shape=cylinder3;whiteSpace=wrap;html=1;boundedLbl=1;backgroundOutline=1;size=15;fillColor=#f5f5f5;strokeColor=#666666;fontColor=#333333;" parent="1" vertex="1">
          <mxGeometry x="305" y="360" width="60" height="60" as="geometry" />
        </mxCell>
        <mxCell id="wAzL0EVWeeOAPMfM1UnS-11" value="shard_1_2&lt;div&gt;Slave&lt;/div&gt;" style="shape=cylinder3;whiteSpace=wrap;html=1;boundedLbl=1;backgroundOutline=1;size=15;fillColor=#f5f5f5;strokeColor=#666666;fontColor=#333333;" parent="1" vertex="1">
          <mxGeometry x="240" y="440" width="60" height="60" as="geometry" />
        </mxCell>
        <mxCell id="wAzL0EVWeeOAPMfM1UnS-12" value="shard_1_3&lt;div&gt;Slave&lt;/div&gt;" style="shape=cylinder3;whiteSpace=wrap;html=1;boundedLbl=1;backgroundOutline=1;size=15;fillColor=#f5f5f5;strokeColor=#666666;fontColor=#333333;" parent="1" vertex="1">
          <mxGeometry x="360" y="440" width="60" height="60" as="geometry" />
        </mxCell>
        <mxCell id="AHjRgc1gNTrPlPV6p_8R-2" value="" style="endArrow=classic;startArrow=classic;html=1;rounded=0;exitX=1;exitY=1;exitDx=0;exitDy=-15;exitPerimeter=0;entryX=0.5;entryY=0;entryDx=0;entryDy=0;entryPerimeter=0;dashed=1;dashPattern=12 12;fillColor=#f5f5f5;strokeColor=#666666;" parent="1" source="wAzL0EVWeeOAPMfM1UnS-10" target="wAzL0EVWeeOAPMfM1UnS-12" edge="1">
          <mxGeometry width="50" height="50" relative="1" as="geometry">
            <mxPoint x="350" y="460" as="sourcePoint" />
            <mxPoint x="400" y="410" as="targetPoint" />
          </mxGeometry>
        </mxCell>
        <mxCell id="AHjRgc1gNTrPlPV6p_8R-3" value="" style="endArrow=classic;startArrow=classic;html=1;rounded=0;exitX=0;exitY=1;exitDx=0;exitDy=-15;exitPerimeter=0;entryX=0.5;entryY=0;entryDx=0;entryDy=0;entryPerimeter=0;dashed=1;dashPattern=12 12;fillColor=#f5f5f5;strokeColor=#666666;" parent="1" source="wAzL0EVWeeOAPMfM1UnS-10" target="wAzL0EVWeeOAPMfM1UnS-11" edge="1">
          <mxGeometry width="50" height="50" relative="1" as="geometry">
            <mxPoint x="323" y="440" as="sourcePoint" />
            <mxPoint x="365" y="486" as="targetPoint" />
          </mxGeometry>
        </mxCell>
        <mxCell id="AHjRgc1gNTrPlPV6p_8R-4" value="" style="endArrow=classic;startArrow=classic;html=1;rounded=0;entryX=1;entryY=0.5;entryDx=0;entryDy=0;entryPerimeter=0;dashed=1;dashPattern=12 12;fillColor=#f5f5f5;strokeColor=#666666;" parent="1" source="wAzL0EVWeeOAPMfM1UnS-12" target="wAzL0EVWeeOAPMfM1UnS-11" edge="1">
          <mxGeometry width="50" height="50" relative="1" as="geometry">
            <mxPoint x="315" y="415" as="sourcePoint" />
            <mxPoint x="270" y="450" as="targetPoint" />
          </mxGeometry>
        </mxCell>
        <mxCell id="AHjRgc1gNTrPlPV6p_8R-5" value="" style="rounded=1;whiteSpace=wrap;html=1;dashed=1;fillColor=#f5f5f5;strokeColor=#666666;fontColor=#333333;" parent="1" vertex="1">
          <mxGeometry x="460" y="350" width="230" height="170" as="geometry" />
        </mxCell>
        <mxCell id="AHjRgc1gNTrPlPV6p_8R-6" value="shard2_1&lt;div&gt;Master&lt;/div&gt;" style="shape=cylinder3;whiteSpace=wrap;html=1;boundedLbl=1;backgroundOutline=1;size=15;fillColor=#f5f5f5;strokeColor=#666666;fontColor=#333333;" parent="1" vertex="1">
          <mxGeometry x="545" y="360" width="60" height="60" as="geometry" />
        </mxCell>
        <mxCell id="AHjRgc1gNTrPlPV6p_8R-7" value="shard2_2&lt;div&gt;Slave&lt;/div&gt;" style="shape=cylinder3;whiteSpace=wrap;html=1;boundedLbl=1;backgroundOutline=1;size=15;fillColor=#f5f5f5;strokeColor=#666666;fontColor=#333333;" parent="1" vertex="1">
          <mxGeometry x="480" y="440" width="60" height="60" as="geometry" />
        </mxCell>
        <mxCell id="AHjRgc1gNTrPlPV6p_8R-8" value="shard2_3&lt;div&gt;Slave&lt;/div&gt;" style="shape=cylinder3;whiteSpace=wrap;html=1;boundedLbl=1;backgroundOutline=1;size=15;fillColor=#f5f5f5;strokeColor=#666666;fontColor=#333333;" parent="1" vertex="1">
          <mxGeometry x="600" y="440" width="60" height="60" as="geometry" />
        </mxCell>
        <mxCell id="AHjRgc1gNTrPlPV6p_8R-9" value="" style="endArrow=classic;startArrow=classic;html=1;rounded=0;exitX=1;exitY=1;exitDx=0;exitDy=-15;exitPerimeter=0;entryX=0.5;entryY=0;entryDx=0;entryDy=0;entryPerimeter=0;dashed=1;dashPattern=12 12;fillColor=#f5f5f5;strokeColor=#666666;" parent="1" source="AHjRgc1gNTrPlPV6p_8R-6" target="AHjRgc1gNTrPlPV6p_8R-8" edge="1">
          <mxGeometry width="50" height="50" relative="1" as="geometry">
            <mxPoint x="590" y="460" as="sourcePoint" />
            <mxPoint x="640" y="410" as="targetPoint" />
          </mxGeometry>
        </mxCell>
        <mxCell id="AHjRgc1gNTrPlPV6p_8R-10" value="" style="endArrow=classic;startArrow=classic;html=1;rounded=0;exitX=0;exitY=1;exitDx=0;exitDy=-15;exitPerimeter=0;entryX=0.5;entryY=0;entryDx=0;entryDy=0;entryPerimeter=0;dashed=1;dashPattern=12 12;fillColor=#f5f5f5;strokeColor=#666666;" parent="1" source="AHjRgc1gNTrPlPV6p_8R-6" target="AHjRgc1gNTrPlPV6p_8R-7" edge="1">
          <mxGeometry width="50" height="50" relative="1" as="geometry">
            <mxPoint x="563" y="440" as="sourcePoint" />
            <mxPoint x="605" y="486" as="targetPoint" />
          </mxGeometry>
        </mxCell>
        <mxCell id="AHjRgc1gNTrPlPV6p_8R-11" value="" style="endArrow=classic;startArrow=classic;html=1;rounded=0;entryX=1;entryY=0.5;entryDx=0;entryDy=0;entryPerimeter=0;dashed=1;dashPattern=12 12;fillColor=#f5f5f5;strokeColor=#666666;" parent="1" source="AHjRgc1gNTrPlPV6p_8R-8" target="AHjRgc1gNTrPlPV6p_8R-7" edge="1">
          <mxGeometry width="50" height="50" relative="1" as="geometry">
            <mxPoint x="555" y="415" as="sourcePoint" />
            <mxPoint x="510" y="450" as="targetPoint" />
          </mxGeometry>
        </mxCell>
        <mxCell id="AHjRgc1gNTrPlPV6p_8R-14" value="MongoDB" style="text;html=1;align=center;verticalAlign=middle;whiteSpace=wrap;rounded=0;fillColor=#f5f5f5;strokeColor=#666666;fontColor=#333333;" parent="1" vertex="1">
          <mxGeometry x="305" y="520" width="60" height="30" as="geometry" />
        </mxCell>
        <mxCell id="AHjRgc1gNTrPlPV6p_8R-15" value="MongoDB" style="text;html=1;align=center;verticalAlign=middle;whiteSpace=wrap;rounded=0;fillColor=#f5f5f5;strokeColor=#666666;fontColor=#333333;" parent="1" vertex="1">
          <mxGeometry x="545" y="520" width="60" height="30" as="geometry" />
        </mxCell>
        <mxCell id="D-lf8TvJES1vX-cIVTjV-1" value="MongoDB" style="text;html=1;align=center;verticalAlign=middle;whiteSpace=wrap;rounded=0;" parent="1" vertex="1">
          <mxGeometry x="160" y="196" width="60" height="30" as="geometry" />
        </mxCell>
        <mxCell id="D-lf8TvJES1vX-cIVTjV-2" value="MongoDB" style="text;html=1;align=center;verticalAlign=middle;whiteSpace=wrap;rounded=0;" parent="1" vertex="1">
          <mxGeometry x="390" y="196" width="60" height="30" as="geometry" />
        </mxCell>
        <mxCell id="MbhEZVdrl1Ls0TTGmsXm-1" value="Python" style="text;html=1;align=center;verticalAlign=middle;whiteSpace=wrap;rounded=0;" parent="1" vertex="1">
          <mxGeometry x="425" y="80" width="60" height="30" as="geometry" />
        </mxCell>
      </root>
    </mxGraphModel>
  </diagram>
  <diagram id="dBNvi6Hkg61etVoi3_Bs" name="3. + Кэширование">
    <mxGraphModel dx="1434" dy="836" grid="1" gridSize="10" guides="1" tooltips="1" connect="1" arrows="1" fold="1" page="1" pageScale="1" pageWidth="850" pageHeight="1100" math="0" shadow="0">
      <root>
        <mxCell id="0" />
        <mxCell id="1" parent="0" />
        <mxCell id="RTBuElE5yuhZRxdF4QcR-22" style="edgeStyle=orthogonalEdgeStyle;rounded=0;orthogonalLoop=1;jettySize=auto;html=1;exitX=0;exitY=0.5;exitDx=0;exitDy=0;entryX=1;entryY=0.5;entryDx=0;entryDy=0;entryPerimeter=0;fillColor=#f5f5f5;strokeColor=#666666;" parent="1" source="W_pftBKROTpv9sWHp8fh-1" target="RTBuElE5yuhZRxdF4QcR-23" edge="1">
          <mxGeometry relative="1" as="geometry">
            <mxPoint x="495" y="330" as="sourcePoint" />
            <mxPoint x="260" y="144" as="targetPoint" />
          </mxGeometry>
        </mxCell>
        <mxCell id="RTBuElE5yuhZRxdF4QcR-23" value="redis1" style="shape=cylinder3;whiteSpace=wrap;html=1;boundedLbl=1;backgroundOutline=1;size=15;fillColor=#f5f5f5;fontColor=#333333;strokeColor=#666666;" parent="1" vertex="1">
          <mxGeometry x="180" y="110" width="70" height="60" as="geometry" />
        </mxCell>
        <mxCell id="gFQTLbfEPESC0OvVu2YP-3" value="Redis" style="text;html=1;align=center;verticalAlign=middle;whiteSpace=wrap;rounded=0;fillColor=#f5f5f5;fontColor=#333333;strokeColor=#666666;" parent="1" vertex="1">
          <mxGeometry x="160" y="80" width="60" height="30" as="geometry" />
        </mxCell>
        <mxCell id="W_pftBKROTpv9sWHp8fh-1" value="pymongo-api" style="rounded=1;whiteSpace=wrap;html=1;" vertex="1" parent="1">
          <mxGeometry x="395" y="110" width="120" height="60" as="geometry" />
        </mxCell>
        <mxCell id="W_pftBKROTpv9sWHp8fh-2" style="edgeStyle=orthogonalEdgeStyle;rounded=0;orthogonalLoop=1;jettySize=auto;html=1;exitX=0.5;exitY=1;exitDx=0;exitDy=0;" edge="1" parent="1" source="W_pftBKROTpv9sWHp8fh-1" target="W_pftBKROTpv9sWHp8fh-4">
          <mxGeometry relative="1" as="geometry" />
        </mxCell>
        <mxCell id="W_pftBKROTpv9sWHp8fh-3" value="configSrv" style="rounded=1;whiteSpace=wrap;html=1;" vertex="1" parent="1">
          <mxGeometry x="160" y="220" width="120" height="60" as="geometry" />
        </mxCell>
        <mxCell id="W_pftBKROTpv9sWHp8fh-4" value="mongos_router" style="rounded=1;whiteSpace=wrap;html=1;" vertex="1" parent="1">
          <mxGeometry x="395" y="220" width="120" height="60" as="geometry" />
        </mxCell>
        <mxCell id="W_pftBKROTpv9sWHp8fh-5" style="edgeStyle=orthogonalEdgeStyle;rounded=0;orthogonalLoop=1;jettySize=auto;html=1;exitX=0.25;exitY=1;exitDx=0;exitDy=0;entryX=0.5;entryY=0;entryDx=0;entryDy=0;" edge="1" parent="1" source="W_pftBKROTpv9sWHp8fh-4" target="W_pftBKROTpv9sWHp8fh-8">
          <mxGeometry relative="1" as="geometry">
            <mxPoint x="460" y="180" as="sourcePoint" />
            <mxPoint x="360" y="340" as="targetPoint" />
          </mxGeometry>
        </mxCell>
        <mxCell id="W_pftBKROTpv9sWHp8fh-6" style="edgeStyle=orthogonalEdgeStyle;rounded=0;orthogonalLoop=1;jettySize=auto;html=1;exitX=0.75;exitY=1;exitDx=0;exitDy=0;entryX=0.5;entryY=0;entryDx=0;entryDy=0;" edge="1" parent="1" source="W_pftBKROTpv9sWHp8fh-4" target="W_pftBKROTpv9sWHp8fh-15">
          <mxGeometry relative="1" as="geometry">
            <mxPoint x="470" y="190" as="sourcePoint" />
            <mxPoint x="520" y="340" as="targetPoint" />
          </mxGeometry>
        </mxCell>
        <mxCell id="W_pftBKROTpv9sWHp8fh-7" style="edgeStyle=orthogonalEdgeStyle;rounded=0;orthogonalLoop=1;jettySize=auto;html=1;exitX=0;exitY=0.5;exitDx=0;exitDy=0;entryX=1;entryY=0.5;entryDx=0;entryDy=0;" edge="1" parent="1" source="W_pftBKROTpv9sWHp8fh-4" target="W_pftBKROTpv9sWHp8fh-3">
          <mxGeometry relative="1" as="geometry">
            <mxPoint x="480" y="200" as="sourcePoint" />
            <mxPoint x="485" y="250" as="targetPoint" />
          </mxGeometry>
        </mxCell>
        <mxCell id="W_pftBKROTpv9sWHp8fh-8" value="" style="rounded=1;whiteSpace=wrap;html=1;dashed=1;" vertex="1" parent="1">
          <mxGeometry x="220" y="350" width="230" height="170" as="geometry" />
        </mxCell>
        <mxCell id="W_pftBKROTpv9sWHp8fh-9" value="shard_1_1&lt;div&gt;Master&lt;/div&gt;" style="shape=cylinder3;whiteSpace=wrap;html=1;boundedLbl=1;backgroundOutline=1;size=15;" vertex="1" parent="1">
          <mxGeometry x="305" y="360" width="60" height="60" as="geometry" />
        </mxCell>
        <mxCell id="W_pftBKROTpv9sWHp8fh-10" value="shard_1_2&lt;div&gt;Slave&lt;/div&gt;" style="shape=cylinder3;whiteSpace=wrap;html=1;boundedLbl=1;backgroundOutline=1;size=15;" vertex="1" parent="1">
          <mxGeometry x="240" y="440" width="60" height="60" as="geometry" />
        </mxCell>
        <mxCell id="W_pftBKROTpv9sWHp8fh-11" value="shard_1_3&lt;div&gt;Slave&lt;/div&gt;" style="shape=cylinder3;whiteSpace=wrap;html=1;boundedLbl=1;backgroundOutline=1;size=15;" vertex="1" parent="1">
          <mxGeometry x="360" y="440" width="60" height="60" as="geometry" />
        </mxCell>
        <mxCell id="W_pftBKROTpv9sWHp8fh-12" value="" style="endArrow=classic;startArrow=classic;html=1;rounded=0;exitX=1;exitY=1;exitDx=0;exitDy=-15;exitPerimeter=0;entryX=0.5;entryY=0;entryDx=0;entryDy=0;entryPerimeter=0;dashed=1;dashPattern=12 12;" edge="1" parent="1" source="W_pftBKROTpv9sWHp8fh-9" target="W_pftBKROTpv9sWHp8fh-11">
          <mxGeometry width="50" height="50" relative="1" as="geometry">
            <mxPoint x="350" y="460" as="sourcePoint" />
            <mxPoint x="400" y="410" as="targetPoint" />
          </mxGeometry>
        </mxCell>
        <mxCell id="W_pftBKROTpv9sWHp8fh-13" value="" style="endArrow=classic;startArrow=classic;html=1;rounded=0;exitX=0;exitY=1;exitDx=0;exitDy=-15;exitPerimeter=0;entryX=0.5;entryY=0;entryDx=0;entryDy=0;entryPerimeter=0;dashed=1;dashPattern=12 12;" edge="1" parent="1" source="W_pftBKROTpv9sWHp8fh-9" target="W_pftBKROTpv9sWHp8fh-10">
          <mxGeometry width="50" height="50" relative="1" as="geometry">
            <mxPoint x="323" y="440" as="sourcePoint" />
            <mxPoint x="365" y="486" as="targetPoint" />
          </mxGeometry>
        </mxCell>
        <mxCell id="W_pftBKROTpv9sWHp8fh-14" value="" style="endArrow=classic;startArrow=classic;html=1;rounded=0;entryX=1;entryY=0.5;entryDx=0;entryDy=0;entryPerimeter=0;dashed=1;dashPattern=12 12;" edge="1" parent="1" source="W_pftBKROTpv9sWHp8fh-11" target="W_pftBKROTpv9sWHp8fh-10">
          <mxGeometry width="50" height="50" relative="1" as="geometry">
            <mxPoint x="315" y="415" as="sourcePoint" />
            <mxPoint x="270" y="450" as="targetPoint" />
          </mxGeometry>
        </mxCell>
        <mxCell id="W_pftBKROTpv9sWHp8fh-15" value="" style="rounded=1;whiteSpace=wrap;html=1;dashed=1;" vertex="1" parent="1">
          <mxGeometry x="460" y="350" width="230" height="170" as="geometry" />
        </mxCell>
        <mxCell id="W_pftBKROTpv9sWHp8fh-16" value="shard2_1&lt;div&gt;Master&lt;/div&gt;" style="shape=cylinder3;whiteSpace=wrap;html=1;boundedLbl=1;backgroundOutline=1;size=15;" vertex="1" parent="1">
          <mxGeometry x="545" y="360" width="60" height="60" as="geometry" />
        </mxCell>
        <mxCell id="W_pftBKROTpv9sWHp8fh-17" value="shard2_2&lt;div&gt;Slave&lt;/div&gt;" style="shape=cylinder3;whiteSpace=wrap;html=1;boundedLbl=1;backgroundOutline=1;size=15;" vertex="1" parent="1">
          <mxGeometry x="480" y="440" width="60" height="60" as="geometry" />
        </mxCell>
        <mxCell id="W_pftBKROTpv9sWHp8fh-18" value="shard2_3&lt;div&gt;Slave&lt;/div&gt;" style="shape=cylinder3;whiteSpace=wrap;html=1;boundedLbl=1;backgroundOutline=1;size=15;" vertex="1" parent="1">
          <mxGeometry x="600" y="440" width="60" height="60" as="geometry" />
        </mxCell>
        <mxCell id="W_pftBKROTpv9sWHp8fh-19" value="" style="endArrow=classic;startArrow=classic;html=1;rounded=0;exitX=1;exitY=1;exitDx=0;exitDy=-15;exitPerimeter=0;entryX=0.5;entryY=0;entryDx=0;entryDy=0;entryPerimeter=0;dashed=1;dashPattern=12 12;" edge="1" parent="1" source="W_pftBKROTpv9sWHp8fh-16" target="W_pftBKROTpv9sWHp8fh-18">
          <mxGeometry width="50" height="50" relative="1" as="geometry">
            <mxPoint x="590" y="460" as="sourcePoint" />
            <mxPoint x="640" y="410" as="targetPoint" />
          </mxGeometry>
        </mxCell>
        <mxCell id="W_pftBKROTpv9sWHp8fh-20" value="" style="endArrow=classic;startArrow=classic;html=1;rounded=0;exitX=0;exitY=1;exitDx=0;exitDy=-15;exitPerimeter=0;entryX=0.5;entryY=0;entryDx=0;entryDy=0;entryPerimeter=0;dashed=1;dashPattern=12 12;" edge="1" parent="1" source="W_pftBKROTpv9sWHp8fh-16" target="W_pftBKROTpv9sWHp8fh-17">
          <mxGeometry width="50" height="50" relative="1" as="geometry">
            <mxPoint x="563" y="440" as="sourcePoint" />
            <mxPoint x="605" y="486" as="targetPoint" />
          </mxGeometry>
        </mxCell>
        <mxCell id="W_pftBKROTpv9sWHp8fh-21" value="" style="endArrow=classic;startArrow=classic;html=1;rounded=0;entryX=1;entryY=0.5;entryDx=0;entryDy=0;entryPerimeter=0;dashed=1;dashPattern=12 12;" edge="1" parent="1" source="W_pftBKROTpv9sWHp8fh-18" target="W_pftBKROTpv9sWHp8fh-17">
          <mxGeometry width="50" height="50" relative="1" as="geometry">
            <mxPoint x="555" y="415" as="sourcePoint" />
            <mxPoint x="510" y="450" as="targetPoint" />
          </mxGeometry>
        </mxCell>
        <mxCell id="W_pftBKROTpv9sWHp8fh-22" value="MongoDB" style="text;html=1;align=center;verticalAlign=middle;whiteSpace=wrap;rounded=0;" vertex="1" parent="1">
          <mxGeometry x="305" y="520" width="60" height="30" as="geometry" />
        </mxCell>
        <mxCell id="W_pftBKROTpv9sWHp8fh-23" value="MongoDB" style="text;html=1;align=center;verticalAlign=middle;whiteSpace=wrap;rounded=0;" vertex="1" parent="1">
          <mxGeometry x="545" y="520" width="60" height="30" as="geometry" />
        </mxCell>
        <mxCell id="W_pftBKROTpv9sWHp8fh-24" value="MongoDB" style="text;html=1;align=center;verticalAlign=middle;whiteSpace=wrap;rounded=0;" vertex="1" parent="1">
          <mxGeometry x="160" y="196" width="60" height="30" as="geometry" />
        </mxCell>
        <mxCell id="W_pftBKROTpv9sWHp8fh-25" value="MongoDB" style="text;html=1;align=center;verticalAlign=middle;whiteSpace=wrap;rounded=0;" vertex="1" parent="1">
          <mxGeometry x="390" y="196" width="60" height="30" as="geometry" />
        </mxCell>
        <mxCell id="W_pftBKROTpv9sWHp8fh-26" value="Python" style="text;html=1;align=center;verticalAlign=middle;whiteSpace=wrap;rounded=0;" vertex="1" parent="1">
          <mxGeometry x="425" y="80" width="60" height="30" as="geometry" />
        </mxCell>
      </root>
    </mxGraphModel>
  </diagram>
  <diagram id="_ETc_7NmIywUQysjeEoD" name="4. + Масштабирование приложения">
    <mxGraphModel dx="1434" dy="836" grid="1" gridSize="10" guides="1" tooltips="1" connect="1" arrows="1" fold="1" page="1" pageScale="1" pageWidth="850" pageHeight="1100" math="0" shadow="0">
      <root>
        <mxCell id="0" />
        <mxCell id="1" parent="0" />
        <mxCell id="RbJCNgWF7YFC7fxvl6Lx-31" value="" style="rounded=1;whiteSpace=wrap;html=1;dashed=1;dashPattern=1 4;" parent="1" vertex="1">
          <mxGeometry x="290" y="290" width="290" height="80" as="geometry" />
        </mxCell>
        <mxCell id="RbJCNgWF7YFC7fxvl6Lx-1" value="pymongo-api2" style="rounded=1;whiteSpace=wrap;html=1;fillColor=#f5f5f5;fontColor=#333333;strokeColor=#666666;" parent="1" vertex="1">
          <mxGeometry x="440" y="300" width="120" height="60" as="geometry" />
        </mxCell>
        <mxCell id="RbJCNgWF7YFC7fxvl6Lx-29" value="APISIX1" style="rounded=1;whiteSpace=wrap;html=1;fillColor=#f5f5f5;fontColor=#333333;strokeColor=#666666;" parent="1" vertex="1">
          <mxGeometry x="320" y="80" width="120" height="60" as="geometry" />
        </mxCell>
        <mxCell id="RbJCNgWF7YFC7fxvl6Lx-30" value="pymongo-api1" style="rounded=1;whiteSpace=wrap;html=1;" parent="1" vertex="1">
          <mxGeometry x="310" y="300" width="120" height="60" as="geometry" />
        </mxCell>
        <mxCell id="RbJCNgWF7YFC7fxvl6Lx-35" value="&lt;font style=&quot;font-size: 10px;&quot;&gt;APISIX Gateway&lt;/font&gt;" style="text;html=1;align=center;verticalAlign=middle;whiteSpace=wrap;rounded=0;" parent="1" vertex="1">
          <mxGeometry x="390" y="50" width="60" height="30" as="geometry" />
        </mxCell>
        <mxCell id="RbJCNgWF7YFC7fxvl6Lx-37" style="edgeStyle=orthogonalEdgeStyle;rounded=0;orthogonalLoop=1;jettySize=auto;html=1;exitX=0.5;exitY=1;exitDx=0;exitDy=0;entryX=0.31;entryY=0;entryDx=0;entryDy=0;entryPerimeter=0;" parent="1" source="RbJCNgWF7YFC7fxvl6Lx-29" target="RbJCNgWF7YFC7fxvl6Lx-31" edge="1">
          <mxGeometry relative="1" as="geometry">
            <mxPoint x="390" y="20" as="sourcePoint" />
            <mxPoint x="380" y="280" as="targetPoint" />
          </mxGeometry>
        </mxCell>
        <mxCell id="RbJCNgWF7YFC7fxvl6Lx-38" value="service-discovery" style="rounded=1;whiteSpace=wrap;html=1;fillColor=#f5f5f5;fontColor=#333333;strokeColor=#666666;" parent="1" vertex="1">
          <mxGeometry x="530" y="80" width="120" height="60" as="geometry" />
        </mxCell>
        <mxCell id="RbJCNgWF7YFC7fxvl6Lx-39" value="Consul" style="text;html=1;align=center;verticalAlign=middle;whiteSpace=wrap;rounded=0;" parent="1" vertex="1">
          <mxGeometry x="599" y="55" width="60" height="30" as="geometry" />
        </mxCell>
        <mxCell id="RbJCNgWF7YFC7fxvl6Lx-40" style="edgeStyle=orthogonalEdgeStyle;rounded=0;orthogonalLoop=1;jettySize=auto;html=1;exitX=1;exitY=0.5;exitDx=0;exitDy=0;" parent="1" source="RbJCNgWF7YFC7fxvl6Lx-29" target="RbJCNgWF7YFC7fxvl6Lx-38" edge="1">
          <mxGeometry relative="1" as="geometry">
            <mxPoint x="390" y="150" as="sourcePoint" />
            <mxPoint x="387" y="187" as="targetPoint" />
          </mxGeometry>
        </mxCell>
        <mxCell id="RbJCNgWF7YFC7fxvl6Lx-41" style="edgeStyle=orthogonalEdgeStyle;rounded=0;orthogonalLoop=1;jettySize=auto;html=1;entryX=1;entryY=0.5;entryDx=0;entryDy=0;exitX=1;exitY=0.25;exitDx=0;exitDy=0;" parent="1" source="RbJCNgWF7YFC7fxvl6Lx-31" target="RbJCNgWF7YFC7fxvl6Lx-38" edge="1">
          <mxGeometry relative="1" as="geometry">
            <mxPoint x="400" y="160" as="sourcePoint" />
            <mxPoint x="397" y="197" as="targetPoint" />
          </mxGeometry>
        </mxCell>
        <mxCell id="CCNa3qNkdv2d8WTQSc1W-2" value="Python" style="text;html=1;align=center;verticalAlign=middle;whiteSpace=wrap;rounded=0;" parent="1" vertex="1">
          <mxGeometry x="290" y="260" width="60" height="30" as="geometry" />
        </mxCell>
        <mxCell id="gyZwr8vF49ohp_E6G3If-1" style="edgeStyle=orthogonalEdgeStyle;rounded=0;orthogonalLoop=1;jettySize=auto;html=1;entryX=1;entryY=0.5;entryDx=0;entryDy=0;entryPerimeter=0;" edge="1" parent="1" target="gyZwr8vF49ohp_E6G3If-2">
          <mxGeometry relative="1" as="geometry">
            <mxPoint x="290" y="340" as="sourcePoint" />
            <mxPoint x="240" y="344" as="targetPoint" />
          </mxGeometry>
        </mxCell>
        <mxCell id="gyZwr8vF49ohp_E6G3If-2" value="redis1" style="shape=cylinder3;whiteSpace=wrap;html=1;boundedLbl=1;backgroundOutline=1;size=15;" vertex="1" parent="1">
          <mxGeometry x="160" y="310" width="70" height="60" as="geometry" />
        </mxCell>
        <mxCell id="gyZwr8vF49ohp_E6G3If-3" value="Redis" style="text;html=1;align=center;verticalAlign=middle;whiteSpace=wrap;rounded=0;" vertex="1" parent="1">
          <mxGeometry x="140" y="280" width="60" height="30" as="geometry" />
        </mxCell>
        <mxCell id="gyZwr8vF49ohp_E6G3If-5" style="edgeStyle=orthogonalEdgeStyle;rounded=0;orthogonalLoop=1;jettySize=auto;html=1;exitX=0.5;exitY=1;exitDx=0;exitDy=0;" edge="1" parent="1" target="gyZwr8vF49ohp_E6G3If-7">
          <mxGeometry relative="1" as="geometry">
            <mxPoint x="435" y="370" as="sourcePoint" />
          </mxGeometry>
        </mxCell>
        <mxCell id="gyZwr8vF49ohp_E6G3If-6" value="configSrv" style="rounded=1;whiteSpace=wrap;html=1;" vertex="1" parent="1">
          <mxGeometry x="140" y="420" width="120" height="60" as="geometry" />
        </mxCell>
        <mxCell id="gyZwr8vF49ohp_E6G3If-7" value="mongos_router" style="rounded=1;whiteSpace=wrap;html=1;" vertex="1" parent="1">
          <mxGeometry x="375" y="420" width="120" height="60" as="geometry" />
        </mxCell>
        <mxCell id="gyZwr8vF49ohp_E6G3If-8" style="edgeStyle=orthogonalEdgeStyle;rounded=0;orthogonalLoop=1;jettySize=auto;html=1;exitX=0.25;exitY=1;exitDx=0;exitDy=0;entryX=0.5;entryY=0;entryDx=0;entryDy=0;" edge="1" parent="1" source="gyZwr8vF49ohp_E6G3If-7" target="gyZwr8vF49ohp_E6G3If-11">
          <mxGeometry relative="1" as="geometry">
            <mxPoint x="440" y="380" as="sourcePoint" />
            <mxPoint x="340" y="540" as="targetPoint" />
          </mxGeometry>
        </mxCell>
        <mxCell id="gyZwr8vF49ohp_E6G3If-9" style="edgeStyle=orthogonalEdgeStyle;rounded=0;orthogonalLoop=1;jettySize=auto;html=1;exitX=0.75;exitY=1;exitDx=0;exitDy=0;entryX=0.5;entryY=0;entryDx=0;entryDy=0;" edge="1" parent="1" source="gyZwr8vF49ohp_E6G3If-7" target="gyZwr8vF49ohp_E6G3If-18">
          <mxGeometry relative="1" as="geometry">
            <mxPoint x="450" y="390" as="sourcePoint" />
            <mxPoint x="500" y="540" as="targetPoint" />
          </mxGeometry>
        </mxCell>
        <mxCell id="gyZwr8vF49ohp_E6G3If-10" style="edgeStyle=orthogonalEdgeStyle;rounded=0;orthogonalLoop=1;jettySize=auto;html=1;exitX=0;exitY=0.5;exitDx=0;exitDy=0;entryX=1;entryY=0.5;entryDx=0;entryDy=0;" edge="1" parent="1" source="gyZwr8vF49ohp_E6G3If-7" target="gyZwr8vF49ohp_E6G3If-6">
          <mxGeometry relative="1" as="geometry">
            <mxPoint x="460" y="400" as="sourcePoint" />
            <mxPoint x="465" y="450" as="targetPoint" />
          </mxGeometry>
        </mxCell>
        <mxCell id="gyZwr8vF49ohp_E6G3If-11" value="" style="rounded=1;whiteSpace=wrap;html=1;dashed=1;" vertex="1" parent="1">
          <mxGeometry x="200" y="550" width="230" height="170" as="geometry" />
        </mxCell>
        <mxCell id="gyZwr8vF49ohp_E6G3If-12" value="shard_1_1&lt;div&gt;Master&lt;/div&gt;" style="shape=cylinder3;whiteSpace=wrap;html=1;boundedLbl=1;backgroundOutline=1;size=15;" vertex="1" parent="1">
          <mxGeometry x="285" y="560" width="60" height="60" as="geometry" />
        </mxCell>
        <mxCell id="gyZwr8vF49ohp_E6G3If-13" value="shard_1_2&lt;div&gt;Slave&lt;/div&gt;" style="shape=cylinder3;whiteSpace=wrap;html=1;boundedLbl=1;backgroundOutline=1;size=15;" vertex="1" parent="1">
          <mxGeometry x="220" y="640" width="60" height="60" as="geometry" />
        </mxCell>
        <mxCell id="gyZwr8vF49ohp_E6G3If-14" value="shard_1_3&lt;div&gt;Slave&lt;/div&gt;" style="shape=cylinder3;whiteSpace=wrap;html=1;boundedLbl=1;backgroundOutline=1;size=15;" vertex="1" parent="1">
          <mxGeometry x="340" y="640" width="60" height="60" as="geometry" />
        </mxCell>
        <mxCell id="gyZwr8vF49ohp_E6G3If-15" value="" style="endArrow=classic;startArrow=classic;html=1;rounded=0;exitX=1;exitY=1;exitDx=0;exitDy=-15;exitPerimeter=0;entryX=0.5;entryY=0;entryDx=0;entryDy=0;entryPerimeter=0;dashed=1;dashPattern=12 12;" edge="1" parent="1" source="gyZwr8vF49ohp_E6G3If-12" target="gyZwr8vF49ohp_E6G3If-14">
          <mxGeometry width="50" height="50" relative="1" as="geometry">
            <mxPoint x="330" y="660" as="sourcePoint" />
            <mxPoint x="380" y="610" as="targetPoint" />
          </mxGeometry>
        </mxCell>
        <mxCell id="gyZwr8vF49ohp_E6G3If-16" value="" style="endArrow=classic;startArrow=classic;html=1;rounded=0;exitX=0;exitY=1;exitDx=0;exitDy=-15;exitPerimeter=0;entryX=0.5;entryY=0;entryDx=0;entryDy=0;entryPerimeter=0;dashed=1;dashPattern=12 12;" edge="1" parent="1" source="gyZwr8vF49ohp_E6G3If-12" target="gyZwr8vF49ohp_E6G3If-13">
          <mxGeometry width="50" height="50" relative="1" as="geometry">
            <mxPoint x="303" y="640" as="sourcePoint" />
            <mxPoint x="345" y="686" as="targetPoint" />
          </mxGeometry>
        </mxCell>
        <mxCell id="gyZwr8vF49ohp_E6G3If-17" value="" style="endArrow=classic;startArrow=classic;html=1;rounded=0;entryX=1;entryY=0.5;entryDx=0;entryDy=0;entryPerimeter=0;dashed=1;dashPattern=12 12;" edge="1" parent="1" source="gyZwr8vF49ohp_E6G3If-14" target="gyZwr8vF49ohp_E6G3If-13">
          <mxGeometry width="50" height="50" relative="1" as="geometry">
            <mxPoint x="295" y="615" as="sourcePoint" />
            <mxPoint x="250" y="650" as="targetPoint" />
          </mxGeometry>
        </mxCell>
        <mxCell id="gyZwr8vF49ohp_E6G3If-18" value="" style="rounded=1;whiteSpace=wrap;html=1;dashed=1;" vertex="1" parent="1">
          <mxGeometry x="440" y="550" width="230" height="170" as="geometry" />
        </mxCell>
        <mxCell id="gyZwr8vF49ohp_E6G3If-19" value="shard2_1&lt;div&gt;Master&lt;/div&gt;" style="shape=cylinder3;whiteSpace=wrap;html=1;boundedLbl=1;backgroundOutline=1;size=15;" vertex="1" parent="1">
          <mxGeometry x="525" y="560" width="60" height="60" as="geometry" />
        </mxCell>
        <mxCell id="gyZwr8vF49ohp_E6G3If-20" value="shard2_2&lt;div&gt;Slave&lt;/div&gt;" style="shape=cylinder3;whiteSpace=wrap;html=1;boundedLbl=1;backgroundOutline=1;size=15;" vertex="1" parent="1">
          <mxGeometry x="460" y="640" width="60" height="60" as="geometry" />
        </mxCell>
        <mxCell id="gyZwr8vF49ohp_E6G3If-21" value="shard2_3&lt;div&gt;Slave&lt;/div&gt;" style="shape=cylinder3;whiteSpace=wrap;html=1;boundedLbl=1;backgroundOutline=1;size=15;" vertex="1" parent="1">
          <mxGeometry x="580" y="640" width="60" height="60" as="geometry" />
        </mxCell>
        <mxCell id="gyZwr8vF49ohp_E6G3If-22" value="" style="endArrow=classic;startArrow=classic;html=1;rounded=0;exitX=1;exitY=1;exitDx=0;exitDy=-15;exitPerimeter=0;entryX=0.5;entryY=0;entryDx=0;entryDy=0;entryPerimeter=0;dashed=1;dashPattern=12 12;" edge="1" parent="1" source="gyZwr8vF49ohp_E6G3If-19" target="gyZwr8vF49ohp_E6G3If-21">
          <mxGeometry width="50" height="50" relative="1" as="geometry">
            <mxPoint x="570" y="660" as="sourcePoint" />
            <mxPoint x="620" y="610" as="targetPoint" />
          </mxGeometry>
        </mxCell>
        <mxCell id="gyZwr8vF49ohp_E6G3If-23" value="" style="endArrow=classic;startArrow=classic;html=1;rounded=0;exitX=0;exitY=1;exitDx=0;exitDy=-15;exitPerimeter=0;entryX=0.5;entryY=0;entryDx=0;entryDy=0;entryPerimeter=0;dashed=1;dashPattern=12 12;" edge="1" parent="1" source="gyZwr8vF49ohp_E6G3If-19" target="gyZwr8vF49ohp_E6G3If-20">
          <mxGeometry width="50" height="50" relative="1" as="geometry">
            <mxPoint x="543" y="640" as="sourcePoint" />
            <mxPoint x="585" y="686" as="targetPoint" />
          </mxGeometry>
        </mxCell>
        <mxCell id="gyZwr8vF49ohp_E6G3If-24" value="" style="endArrow=classic;startArrow=classic;html=1;rounded=0;entryX=1;entryY=0.5;entryDx=0;entryDy=0;entryPerimeter=0;dashed=1;dashPattern=12 12;" edge="1" parent="1" source="gyZwr8vF49ohp_E6G3If-21" target="gyZwr8vF49ohp_E6G3If-20">
          <mxGeometry width="50" height="50" relative="1" as="geometry">
            <mxPoint x="535" y="615" as="sourcePoint" />
            <mxPoint x="490" y="650" as="targetPoint" />
          </mxGeometry>
        </mxCell>
        <mxCell id="gyZwr8vF49ohp_E6G3If-25" value="MongoDB" style="text;html=1;align=center;verticalAlign=middle;whiteSpace=wrap;rounded=0;" vertex="1" parent="1">
          <mxGeometry x="285" y="720" width="60" height="30" as="geometry" />
        </mxCell>
        <mxCell id="gyZwr8vF49ohp_E6G3If-26" value="MongoDB" style="text;html=1;align=center;verticalAlign=middle;whiteSpace=wrap;rounded=0;" vertex="1" parent="1">
          <mxGeometry x="525" y="720" width="60" height="30" as="geometry" />
        </mxCell>
        <mxCell id="gyZwr8vF49ohp_E6G3If-27" value="MongoDB" style="text;html=1;align=center;verticalAlign=middle;whiteSpace=wrap;rounded=0;" vertex="1" parent="1">
          <mxGeometry x="140" y="396" width="60" height="30" as="geometry" />
        </mxCell>
        <mxCell id="gyZwr8vF49ohp_E6G3If-28" value="MongoDB" style="text;html=1;align=center;verticalAlign=middle;whiteSpace=wrap;rounded=0;" vertex="1" parent="1">
          <mxGeometry x="370" y="396" width="60" height="30" as="geometry" />
        </mxCell>
      </root>
    </mxGraphModel>
  </diagram>
  <diagram id="128jQZmqsKdTf1CGe3Nl" name="5. +CDN">
    <mxGraphModel dx="1434" dy="836" grid="1" gridSize="10" guides="1" tooltips="1" connect="1" arrows="1" fold="1" page="1" pageScale="1" pageWidth="850" pageHeight="1100" math="0" shadow="0">
      <root>
        <mxCell id="0" />
        <mxCell id="1" parent="0" />
        <mxCell id="3zg3UBTLKL64L57lZq5E-41" value="" style="rounded=1;whiteSpace=wrap;html=1;dashed=1;dashPattern=12 12;fillColor=#f5f5f5;fontColor=#333333;strokeColor=#666666;" parent="1" vertex="1">
          <mxGeometry x="160" y="200" width="140" height="120" as="geometry" />
        </mxCell>
        <mxCell id="3zg3UBTLKL64L57lZq5E-39" value="CDN" style="ellipse;shape=cloud;whiteSpace=wrap;html=1;fillColor=#f5f5f5;fontColor=#333333;strokeColor=#666666;" parent="1" vertex="1">
          <mxGeometry x="170" y="220" width="120" height="80" as="geometry" />
        </mxCell>
        <mxCell id="3zg3UBTLKL64L57lZq5E-42" value="Регион X" style="text;html=1;align=center;verticalAlign=middle;whiteSpace=wrap;rounded=0;fillColor=#f5f5f5;fontColor=#333333;strokeColor=#666666;" parent="1" vertex="1">
          <mxGeometry x="160" y="170" width="60" height="30" as="geometry" />
        </mxCell>
        <mxCell id="3zg3UBTLKL64L57lZq5E-43" value="" style="rounded=1;whiteSpace=wrap;html=1;dashed=1;dashPattern=12 12;fillColor=#f5f5f5;fontColor=#333333;strokeColor=#666666;" parent="1" vertex="1">
          <mxGeometry x="490" y="200" width="140" height="120" as="geometry" />
        </mxCell>
        <mxCell id="3zg3UBTLKL64L57lZq5E-44" value="CDN" style="ellipse;shape=cloud;whiteSpace=wrap;html=1;fillColor=#f5f5f5;fontColor=#333333;strokeColor=#666666;" parent="1" vertex="1">
          <mxGeometry x="500" y="220" width="120" height="80" as="geometry" />
        </mxCell>
        <mxCell id="3zg3UBTLKL64L57lZq5E-45" value="Регион Y" style="text;html=1;align=center;verticalAlign=middle;whiteSpace=wrap;rounded=0;fillColor=#f5f5f5;fontColor=#333333;strokeColor=#666666;" parent="1" vertex="1">
          <mxGeometry x="569" y="173" width="60" height="30" as="geometry" />
        </mxCell>
        <mxCell id="3zg3UBTLKL64L57lZq5E-46" value="&lt;div&gt;&lt;br&gt;&lt;/div&gt;Пользователи&lt;div&gt;Региона X&lt;/div&gt;" style="shape=umlActor;verticalLabelPosition=bottom;verticalAlign=top;html=1;outlineConnect=0;fillColor=#f5f5f5;fontColor=#333333;strokeColor=#666666;" parent="1" vertex="1">
          <mxGeometry x="340" y="50" width="30" height="60" as="geometry" />
        </mxCell>
        <mxCell id="3zg3UBTLKL64L57lZq5E-50" value="&lt;div&gt;&lt;br&gt;&lt;/div&gt;Пользователи&lt;div&gt;Региона Y&lt;/div&gt;" style="shape=umlActor;verticalLabelPosition=bottom;verticalAlign=top;html=1;outlineConnect=0;fillColor=#f5f5f5;fontColor=#333333;strokeColor=#666666;" parent="1" vertex="1">
          <mxGeometry x="450" y="50" width="30" height="60" as="geometry" />
        </mxCell>
        <mxCell id="3zg3UBTLKL64L57lZq5E-53" style="edgeStyle=orthogonalEdgeStyle;rounded=0;orthogonalLoop=1;jettySize=auto;html=1;entryX=0.5;entryY=0;entryDx=0;entryDy=0;fillColor=#f5f5f5;strokeColor=#666666;" parent="1" source="3zg3UBTLKL64L57lZq5E-50" target="3zg3UBTLKL64L57lZq5E-43" edge="1">
          <mxGeometry relative="1" as="geometry">
            <mxPoint x="64.5" y="50" as="sourcePoint" />
            <mxPoint x="149.5" y="100" as="targetPoint" />
            <Array as="points">
              <mxPoint x="560" y="70" />
            </Array>
          </mxGeometry>
        </mxCell>
        <mxCell id="3zg3UBTLKL64L57lZq5E-57" style="edgeStyle=orthogonalEdgeStyle;rounded=0;orthogonalLoop=1;jettySize=auto;html=1;exitX=0.5;exitY=1;exitDx=0;exitDy=0;entryX=0;entryY=0;entryDx=0;entryDy=0;" parent="1" source="3zg3UBTLKL64L57lZq5E-41" edge="1" target="2aa-H3GCl7LsNzRvsWJi-3">
          <mxGeometry relative="1" as="geometry">
            <mxPoint x="120" y="100" as="sourcePoint" />
            <mxPoint x="370" y="440" as="targetPoint" />
          </mxGeometry>
        </mxCell>
        <mxCell id="3zg3UBTLKL64L57lZq5E-58" style="edgeStyle=orthogonalEdgeStyle;rounded=0;orthogonalLoop=1;jettySize=auto;html=1;entryX=0.5;entryY=0;entryDx=0;entryDy=0;fillColor=#f5f5f5;strokeColor=#666666;" parent="1" source="3zg3UBTLKL64L57lZq5E-46" target="3zg3UBTLKL64L57lZq5E-41" edge="1">
          <mxGeometry relative="1" as="geometry">
            <mxPoint x="130" y="110" as="sourcePoint" />
            <mxPoint x="65" y="450" as="targetPoint" />
            <Array as="points">
              <mxPoint x="230" y="70" />
            </Array>
          </mxGeometry>
        </mxCell>
        <mxCell id="3zg3UBTLKL64L57lZq5E-60" style="edgeStyle=orthogonalEdgeStyle;rounded=0;orthogonalLoop=1;jettySize=auto;html=1;exitX=0.5;exitY=1;exitDx=0;exitDy=0;entryX=0.9;entryY=1.1;entryDx=0;entryDy=0;entryPerimeter=0;" parent="1" source="3zg3UBTLKL64L57lZq5E-43" edge="1" target="2aa-H3GCl7LsNzRvsWJi-5">
          <mxGeometry relative="1" as="geometry">
            <mxPoint x="150" y="130" as="sourcePoint" />
            <mxPoint x="400" y="440" as="targetPoint" />
          </mxGeometry>
        </mxCell>
        <mxCell id="3zg3UBTLKL64L57lZq5E-61" value="Запросы к статическому и динамическому контенту" style="text;html=1;align=center;verticalAlign=middle;whiteSpace=wrap;rounded=0;fillColor=#f5f5f5;fontColor=#333333;strokeColor=#666666;" parent="1" vertex="1">
          <mxGeometry x="165" y="10" width="110" height="60" as="geometry" />
        </mxCell>
        <mxCell id="2aa-H3GCl7LsNzRvsWJi-1" value="" style="rounded=1;whiteSpace=wrap;html=1;dashed=1;dashPattern=1 4;" vertex="1" parent="1">
          <mxGeometry x="310" y="650" width="290" height="80" as="geometry" />
        </mxCell>
        <mxCell id="2aa-H3GCl7LsNzRvsWJi-2" value="pymongo-api2" style="rounded=1;whiteSpace=wrap;html=1;" vertex="1" parent="1">
          <mxGeometry x="460" y="660" width="120" height="60" as="geometry" />
        </mxCell>
        <mxCell id="2aa-H3GCl7LsNzRvsWJi-3" value="APISIX1" style="rounded=1;whiteSpace=wrap;html=1;" vertex="1" parent="1">
          <mxGeometry x="340" y="440" width="120" height="60" as="geometry" />
        </mxCell>
        <mxCell id="2aa-H3GCl7LsNzRvsWJi-4" value="pymongo-api1" style="rounded=1;whiteSpace=wrap;html=1;" vertex="1" parent="1">
          <mxGeometry x="330" y="660" width="120" height="60" as="geometry" />
        </mxCell>
        <mxCell id="2aa-H3GCl7LsNzRvsWJi-5" value="&lt;font style=&quot;font-size: 10px;&quot;&gt;APISIX Gateway&lt;/font&gt;" style="text;html=1;align=center;verticalAlign=middle;whiteSpace=wrap;rounded=0;" vertex="1" parent="1">
          <mxGeometry x="410" y="410" width="60" height="30" as="geometry" />
        </mxCell>
        <mxCell id="2aa-H3GCl7LsNzRvsWJi-6" style="edgeStyle=orthogonalEdgeStyle;rounded=0;orthogonalLoop=1;jettySize=auto;html=1;exitX=0.5;exitY=1;exitDx=0;exitDy=0;entryX=0.31;entryY=0;entryDx=0;entryDy=0;entryPerimeter=0;" edge="1" parent="1" source="2aa-H3GCl7LsNzRvsWJi-3" target="2aa-H3GCl7LsNzRvsWJi-1">
          <mxGeometry relative="1" as="geometry">
            <mxPoint x="410" y="380" as="sourcePoint" />
            <mxPoint x="400" y="640" as="targetPoint" />
          </mxGeometry>
        </mxCell>
        <mxCell id="2aa-H3GCl7LsNzRvsWJi-7" value="service-discovery" style="rounded=1;whiteSpace=wrap;html=1;" vertex="1" parent="1">
          <mxGeometry x="550" y="440" width="120" height="60" as="geometry" />
        </mxCell>
        <mxCell id="2aa-H3GCl7LsNzRvsWJi-8" value="Consul" style="text;html=1;align=center;verticalAlign=middle;whiteSpace=wrap;rounded=0;" vertex="1" parent="1">
          <mxGeometry x="619" y="415" width="60" height="30" as="geometry" />
        </mxCell>
        <mxCell id="2aa-H3GCl7LsNzRvsWJi-9" style="edgeStyle=orthogonalEdgeStyle;rounded=0;orthogonalLoop=1;jettySize=auto;html=1;exitX=1;exitY=0.5;exitDx=0;exitDy=0;" edge="1" parent="1" source="2aa-H3GCl7LsNzRvsWJi-3" target="2aa-H3GCl7LsNzRvsWJi-7">
          <mxGeometry relative="1" as="geometry">
            <mxPoint x="410" y="510" as="sourcePoint" />
            <mxPoint x="407" y="547" as="targetPoint" />
          </mxGeometry>
        </mxCell>
        <mxCell id="2aa-H3GCl7LsNzRvsWJi-10" style="edgeStyle=orthogonalEdgeStyle;rounded=0;orthogonalLoop=1;jettySize=auto;html=1;entryX=1;entryY=0.5;entryDx=0;entryDy=0;exitX=1;exitY=0.25;exitDx=0;exitDy=0;" edge="1" parent="1" source="2aa-H3GCl7LsNzRvsWJi-1" target="2aa-H3GCl7LsNzRvsWJi-7">
          <mxGeometry relative="1" as="geometry">
            <mxPoint x="420" y="520" as="sourcePoint" />
            <mxPoint x="417" y="557" as="targetPoint" />
          </mxGeometry>
        </mxCell>
        <mxCell id="2aa-H3GCl7LsNzRvsWJi-11" value="Python" style="text;html=1;align=center;verticalAlign=middle;whiteSpace=wrap;rounded=0;" vertex="1" parent="1">
          <mxGeometry x="310" y="620" width="60" height="30" as="geometry" />
        </mxCell>
        <mxCell id="2aa-H3GCl7LsNzRvsWJi-12" style="edgeStyle=orthogonalEdgeStyle;rounded=0;orthogonalLoop=1;jettySize=auto;html=1;entryX=1;entryY=0.5;entryDx=0;entryDy=0;entryPerimeter=0;" edge="1" parent="1" target="2aa-H3GCl7LsNzRvsWJi-13">
          <mxGeometry relative="1" as="geometry">
            <mxPoint x="310" y="700" as="sourcePoint" />
            <mxPoint x="260" y="704" as="targetPoint" />
          </mxGeometry>
        </mxCell>
        <mxCell id="2aa-H3GCl7LsNzRvsWJi-13" value="redis1" style="shape=cylinder3;whiteSpace=wrap;html=1;boundedLbl=1;backgroundOutline=1;size=15;" vertex="1" parent="1">
          <mxGeometry x="180" y="670" width="70" height="60" as="geometry" />
        </mxCell>
        <mxCell id="2aa-H3GCl7LsNzRvsWJi-14" value="Redis" style="text;html=1;align=center;verticalAlign=middle;whiteSpace=wrap;rounded=0;" vertex="1" parent="1">
          <mxGeometry x="160" y="640" width="60" height="30" as="geometry" />
        </mxCell>
        <mxCell id="2aa-H3GCl7LsNzRvsWJi-15" style="edgeStyle=orthogonalEdgeStyle;rounded=0;orthogonalLoop=1;jettySize=auto;html=1;exitX=0.5;exitY=1;exitDx=0;exitDy=0;" edge="1" parent="1" target="2aa-H3GCl7LsNzRvsWJi-17">
          <mxGeometry relative="1" as="geometry">
            <mxPoint x="455" y="730" as="sourcePoint" />
          </mxGeometry>
        </mxCell>
        <mxCell id="2aa-H3GCl7LsNzRvsWJi-16" value="configSrv" style="rounded=1;whiteSpace=wrap;html=1;" vertex="1" parent="1">
          <mxGeometry x="160" y="780" width="120" height="60" as="geometry" />
        </mxCell>
        <mxCell id="2aa-H3GCl7LsNzRvsWJi-17" value="mongos_router" style="rounded=1;whiteSpace=wrap;html=1;" vertex="1" parent="1">
          <mxGeometry x="395" y="780" width="120" height="60" as="geometry" />
        </mxCell>
        <mxCell id="2aa-H3GCl7LsNzRvsWJi-18" style="edgeStyle=orthogonalEdgeStyle;rounded=0;orthogonalLoop=1;jettySize=auto;html=1;exitX=0.25;exitY=1;exitDx=0;exitDy=0;entryX=0.5;entryY=0;entryDx=0;entryDy=0;" edge="1" parent="1" source="2aa-H3GCl7LsNzRvsWJi-17" target="2aa-H3GCl7LsNzRvsWJi-21">
          <mxGeometry relative="1" as="geometry">
            <mxPoint x="460" y="740" as="sourcePoint" />
            <mxPoint x="360" y="900" as="targetPoint" />
          </mxGeometry>
        </mxCell>
        <mxCell id="2aa-H3GCl7LsNzRvsWJi-19" style="edgeStyle=orthogonalEdgeStyle;rounded=0;orthogonalLoop=1;jettySize=auto;html=1;exitX=0.75;exitY=1;exitDx=0;exitDy=0;entryX=0.5;entryY=0;entryDx=0;entryDy=0;" edge="1" parent="1" source="2aa-H3GCl7LsNzRvsWJi-17" target="2aa-H3GCl7LsNzRvsWJi-28">
          <mxGeometry relative="1" as="geometry">
            <mxPoint x="470" y="750" as="sourcePoint" />
            <mxPoint x="520" y="900" as="targetPoint" />
          </mxGeometry>
        </mxCell>
        <mxCell id="2aa-H3GCl7LsNzRvsWJi-20" style="edgeStyle=orthogonalEdgeStyle;rounded=0;orthogonalLoop=1;jettySize=auto;html=1;exitX=0;exitY=0.5;exitDx=0;exitDy=0;entryX=1;entryY=0.5;entryDx=0;entryDy=0;" edge="1" parent="1" source="2aa-H3GCl7LsNzRvsWJi-17" target="2aa-H3GCl7LsNzRvsWJi-16">
          <mxGeometry relative="1" as="geometry">
            <mxPoint x="480" y="760" as="sourcePoint" />
            <mxPoint x="485" y="810" as="targetPoint" />
          </mxGeometry>
        </mxCell>
        <mxCell id="2aa-H3GCl7LsNzRvsWJi-21" value="" style="rounded=1;whiteSpace=wrap;html=1;dashed=1;" vertex="1" parent="1">
          <mxGeometry x="220" y="910" width="230" height="170" as="geometry" />
        </mxCell>
        <mxCell id="2aa-H3GCl7LsNzRvsWJi-22" value="shard_1_1&lt;div&gt;Master&lt;/div&gt;" style="shape=cylinder3;whiteSpace=wrap;html=1;boundedLbl=1;backgroundOutline=1;size=15;" vertex="1" parent="1">
          <mxGeometry x="305" y="920" width="60" height="60" as="geometry" />
        </mxCell>
        <mxCell id="2aa-H3GCl7LsNzRvsWJi-23" value="shard_1_2&lt;div&gt;Slave&lt;/div&gt;" style="shape=cylinder3;whiteSpace=wrap;html=1;boundedLbl=1;backgroundOutline=1;size=15;" vertex="1" parent="1">
          <mxGeometry x="240" y="1000" width="60" height="60" as="geometry" />
        </mxCell>
        <mxCell id="2aa-H3GCl7LsNzRvsWJi-24" value="shard_1_3&lt;div&gt;Slave&lt;/div&gt;" style="shape=cylinder3;whiteSpace=wrap;html=1;boundedLbl=1;backgroundOutline=1;size=15;" vertex="1" parent="1">
          <mxGeometry x="360" y="1000" width="60" height="60" as="geometry" />
        </mxCell>
        <mxCell id="2aa-H3GCl7LsNzRvsWJi-25" value="" style="endArrow=classic;startArrow=classic;html=1;rounded=0;exitX=1;exitY=1;exitDx=0;exitDy=-15;exitPerimeter=0;entryX=0.5;entryY=0;entryDx=0;entryDy=0;entryPerimeter=0;dashed=1;dashPattern=12 12;" edge="1" parent="1" source="2aa-H3GCl7LsNzRvsWJi-22" target="2aa-H3GCl7LsNzRvsWJi-24">
          <mxGeometry width="50" height="50" relative="1" as="geometry">
            <mxPoint x="350" y="1020" as="sourcePoint" />
            <mxPoint x="400" y="970" as="targetPoint" />
          </mxGeometry>
        </mxCell>
        <mxCell id="2aa-H3GCl7LsNzRvsWJi-26" value="" style="endArrow=classic;startArrow=classic;html=1;rounded=0;exitX=0;exitY=1;exitDx=0;exitDy=-15;exitPerimeter=0;entryX=0.5;entryY=0;entryDx=0;entryDy=0;entryPerimeter=0;dashed=1;dashPattern=12 12;" edge="1" parent="1" source="2aa-H3GCl7LsNzRvsWJi-22" target="2aa-H3GCl7LsNzRvsWJi-23">
          <mxGeometry width="50" height="50" relative="1" as="geometry">
            <mxPoint x="323" y="1000" as="sourcePoint" />
            <mxPoint x="365" y="1046" as="targetPoint" />
          </mxGeometry>
        </mxCell>
        <mxCell id="2aa-H3GCl7LsNzRvsWJi-27" value="" style="endArrow=classic;startArrow=classic;html=1;rounded=0;entryX=1;entryY=0.5;entryDx=0;entryDy=0;entryPerimeter=0;dashed=1;dashPattern=12 12;" edge="1" parent="1" source="2aa-H3GCl7LsNzRvsWJi-24" target="2aa-H3GCl7LsNzRvsWJi-23">
          <mxGeometry width="50" height="50" relative="1" as="geometry">
            <mxPoint x="315" y="975" as="sourcePoint" />
            <mxPoint x="270" y="1010" as="targetPoint" />
          </mxGeometry>
        </mxCell>
        <mxCell id="2aa-H3GCl7LsNzRvsWJi-28" value="" style="rounded=1;whiteSpace=wrap;html=1;dashed=1;" vertex="1" parent="1">
          <mxGeometry x="460" y="910" width="230" height="170" as="geometry" />
        </mxCell>
        <mxCell id="2aa-H3GCl7LsNzRvsWJi-29" value="shard2_1&lt;div&gt;Master&lt;/div&gt;" style="shape=cylinder3;whiteSpace=wrap;html=1;boundedLbl=1;backgroundOutline=1;size=15;" vertex="1" parent="1">
          <mxGeometry x="545" y="920" width="60" height="60" as="geometry" />
        </mxCell>
        <mxCell id="2aa-H3GCl7LsNzRvsWJi-30" value="shard2_2&lt;div&gt;Slave&lt;/div&gt;" style="shape=cylinder3;whiteSpace=wrap;html=1;boundedLbl=1;backgroundOutline=1;size=15;" vertex="1" parent="1">
          <mxGeometry x="480" y="1000" width="60" height="60" as="geometry" />
        </mxCell>
        <mxCell id="2aa-H3GCl7LsNzRvsWJi-31" value="shard2_3&lt;div&gt;Slave&lt;/div&gt;" style="shape=cylinder3;whiteSpace=wrap;html=1;boundedLbl=1;backgroundOutline=1;size=15;" vertex="1" parent="1">
          <mxGeometry x="600" y="1000" width="60" height="60" as="geometry" />
        </mxCell>
        <mxCell id="2aa-H3GCl7LsNzRvsWJi-32" value="" style="endArrow=classic;startArrow=classic;html=1;rounded=0;exitX=1;exitY=1;exitDx=0;exitDy=-15;exitPerimeter=0;entryX=0.5;entryY=0;entryDx=0;entryDy=0;entryPerimeter=0;dashed=1;dashPattern=12 12;" edge="1" parent="1" source="2aa-H3GCl7LsNzRvsWJi-29" target="2aa-H3GCl7LsNzRvsWJi-31">
          <mxGeometry width="50" height="50" relative="1" as="geometry">
            <mxPoint x="590" y="1020" as="sourcePoint" />
            <mxPoint x="640" y="970" as="targetPoint" />
          </mxGeometry>
        </mxCell>
        <mxCell id="2aa-H3GCl7LsNzRvsWJi-33" value="" style="endArrow=classic;startArrow=classic;html=1;rounded=0;exitX=0;exitY=1;exitDx=0;exitDy=-15;exitPerimeter=0;entryX=0.5;entryY=0;entryDx=0;entryDy=0;entryPerimeter=0;dashed=1;dashPattern=12 12;" edge="1" parent="1" source="2aa-H3GCl7LsNzRvsWJi-29" target="2aa-H3GCl7LsNzRvsWJi-30">
          <mxGeometry width="50" height="50" relative="1" as="geometry">
            <mxPoint x="563" y="1000" as="sourcePoint" />
            <mxPoint x="605" y="1046" as="targetPoint" />
          </mxGeometry>
        </mxCell>
        <mxCell id="2aa-H3GCl7LsNzRvsWJi-34" value="" style="endArrow=classic;startArrow=classic;html=1;rounded=0;entryX=1;entryY=0.5;entryDx=0;entryDy=0;entryPerimeter=0;dashed=1;dashPattern=12 12;" edge="1" parent="1" source="2aa-H3GCl7LsNzRvsWJi-31" target="2aa-H3GCl7LsNzRvsWJi-30">
          <mxGeometry width="50" height="50" relative="1" as="geometry">
            <mxPoint x="555" y="975" as="sourcePoint" />
            <mxPoint x="510" y="1010" as="targetPoint" />
          </mxGeometry>
        </mxCell>
        <mxCell id="2aa-H3GCl7LsNzRvsWJi-35" value="MongoDB" style="text;html=1;align=center;verticalAlign=middle;whiteSpace=wrap;rounded=0;" vertex="1" parent="1">
          <mxGeometry x="305" y="1080" width="60" height="30" as="geometry" />
        </mxCell>
        <mxCell id="2aa-H3GCl7LsNzRvsWJi-36" value="MongoDB" style="text;html=1;align=center;verticalAlign=middle;whiteSpace=wrap;rounded=0;" vertex="1" parent="1">
          <mxGeometry x="545" y="1080" width="60" height="30" as="geometry" />
        </mxCell>
        <mxCell id="2aa-H3GCl7LsNzRvsWJi-37" value="MongoDB" style="text;html=1;align=center;verticalAlign=middle;whiteSpace=wrap;rounded=0;" vertex="1" parent="1">
          <mxGeometry x="160" y="756" width="60" height="30" as="geometry" />
        </mxCell>
        <mxCell id="2aa-H3GCl7LsNzRvsWJi-38" value="MongoDB" style="text;html=1;align=center;verticalAlign=middle;whiteSpace=wrap;rounded=0;" vertex="1" parent="1">
          <mxGeometry x="390" y="756" width="60" height="30" as="geometry" />
        </mxCell>
        <mxCell id="Mjmjv_Vl5zhZ5A7tZqbn-1" value="" style="shape=umlActor;verticalLabelPosition=bottom;verticalAlign=top;html=1;outlineConnect=0;fillColor=#f5f5f5;fontColor=#333333;strokeColor=#666666;" vertex="1" parent="1">
          <mxGeometry x="360" y="50" width="35" height="60" as="geometry" />
        </mxCell>
        <mxCell id="Mjmjv_Vl5zhZ5A7tZqbn-2" value="" style="shape=umlActor;verticalLabelPosition=bottom;verticalAlign=top;html=1;outlineConnect=0;fillColor=#f5f5f5;fontColor=#333333;strokeColor=#666666;" vertex="1" parent="1">
          <mxGeometry x="480" y="50" width="30" height="60" as="geometry" />
        </mxCell>
        <mxCell id="Mjmjv_Vl5zhZ5A7tZqbn-6" value="Запросы к статическому и динамическому контенту" style="text;html=1;align=center;verticalAlign=middle;whiteSpace=wrap;rounded=0;fillColor=#f5f5f5;fontColor=#333333;strokeColor=#666666;" vertex="1" parent="1">
          <mxGeometry x="555" y="10" width="115" height="60" as="geometry" />
        </mxCell>
      </root>
    </mxGraphModel>
  </diagram>
</mxfile>
